<?xml version="1.0" encoding="utf-8" standalone="no"?>
<!DOCTYPE svg PUBLIC "-//W3C//DTD SVG 1.1//EN"
  "http://www.w3.org/Graphics/SVG/1.1/DTD/svg11.dtd">
<svg xmlns:xlink="http://www.w3.org/1999/xlink" width="576pt" height="360pt" viewBox="0 0 576 360" xmlns="http://www.w3.org/2000/svg" version="1.1">
 <metadata>
  <rdf:RDF xmlns:dc="http://purl.org/dc/elements/1.1/" xmlns:cc="http://creativecommons.org/ns#" xmlns:rdf="http://www.w3.org/1999/02/22-rdf-syntax-ns#">
   <cc:Work>
    <dc:type rdf:resource="http://purl.org/dc/dcmitype/StillImage"/>
    <dc:date>2026-06-10T23:37:05.964229</dc:date>
    <dc:format>image/svg+xml</dc:format>
    <dc:creator>
     <cc:Agent>
      <dc:title>Matplotlib v3.10.6, https://matplotlib.org/</dc:title>
     </cc:Agent>
    </dc:creator>
   </cc:Work>
  </rdf:RDF>
 </metadata>
 <defs>
  <style type="text/css">*{stroke-linejoin: round; stroke-linecap: butt}</style>
 </defs>
 <g id="figure_1">
  <g id="patch_1">
   <path d="M 0 360 
L 576 360 
L 576 0 
L 0 0 
z
" style="fill: #ffffff"/>
  </g>
  <g id="axes_1">
   <g id="patch_2">
    <path d="M 55.28 309.4 
L 565.015909 309.4 
L 565.015909 29.832 
L 55.28 29.832 
z
" style="fill: #ffffff"/>
   </g>
   <g id="matplotlib.axis_1">
    <g id="xtick_1">
     <g id="line2d_1">
      <path d="M 88.771317 309.4 
L 88.771317 29.832 
" clip-path="url(#pac330f721f)" style="fill: none; stroke: #b0b0b0; stroke-width: 0.8; stroke-linecap: square"/>
     </g>
     <g id="line2d_2">
      <defs>
       <path id="m91ab7277b0" d="M 0 0 
L 0 3.5 
" style="stroke: #000000; stroke-width: 0.8"/>
      </defs>
      <g>
       <use xlink:href="#m91ab7277b0" x="88.771317" y="309.4" style="stroke: #000000; stroke-width: 0.8"/>
      </g>
     </g>
     <g id="text_1">
      <!-- −0.00014 -->
      <g transform="translate(63.904911 323.998438) scale(0.1 -0.1)">
       <defs>
        <path id="DejaVuSans-2212" d="M 678 2272 
L 4684 2272 
L 4684 1741 
L 678 1741 
L 678 2272 
z
" transform="scale(0.015625)"/>
        <path id="DejaVuSans-30" d="M 2034 4250 
Q 1547 4250 1301 3770 
Q 1056 3291 1056 2328 
Q 1056 1369 1301 889 
Q 1547 409 2034 409 
Q 2525 409 2770 889 
Q 3016 1369 3016 2328 
Q 3016 3291 2770 3770 
Q 2525 4250 2034 4250 
z
M 2034 4750 
Q 2819 4750 3233 4129 
Q 3647 3509 3647 2328 
Q 3647 1150 3233 529 
Q 2819 -91 2034 -91 
Q 1250 -91 836 529 
Q 422 1150 422 2328 
Q 422 3509 836 4129 
Q 1250 4750 2034 4750 
z
" transform="scale(0.015625)"/>
        <path id="DejaVuSans-2e" d="M 684 794 
L 1344 794 
L 1344 0 
L 684 0 
L 684 794 
z
" transform="scale(0.015625)"/>
        <path id="DejaVuSans-31" d="M 794 531 
L 1825 531 
L 1825 4091 
L 703 3866 
L 703 4441 
L 1819 4666 
L 2450 4666 
L 2450 531 
L 3481 531 
L 3481 0 
L 794 0 
L 794 531 
z
" transform="scale(0.015625)"/>
        <path id="DejaVuSans-34" d="M 2419 4116 
L 825 1625 
L 2419 1625 
L 2419 4116 
z
M 2253 4666 
L 3047 4666 
L 3047 1625 
L 3713 1625 
L 3713 1100 
L 3047 1100 
L 3047 0 
L 2419 0 
L 2419 1100 
L 313 1100 
L 313 1709 
L 2253 4666 
z
" transform="scale(0.015625)"/>
       </defs>
       <use xlink:href="#DejaVuSans-2212"/>
       <use xlink:href="#DejaVuSans-30" transform="translate(83.789062 0)"/>
       <use xlink:href="#DejaVuSans-2e" transform="translate(147.412109 0)"/>
       <use xlink:href="#DejaVuSans-30" transform="translate(179.199219 0)"/>
       <use xlink:href="#DejaVuSans-30" transform="translate(242.822266 0)"/>
       <use xlink:href="#DejaVuSans-30" transform="translate(306.445312 0)"/>
       <use xlink:href="#DejaVuSans-31" transform="translate(370.068359 0)"/>
       <use xlink:href="#DejaVuSans-34" transform="translate(433.691406 0)"/>
      </g>
     </g>
    </g>
    <g id="xtick_2">
     <g id="line2d_3">
      <path d="M 153.496286 309.4 
L 153.496286 29.832 
" clip-path="url(#pac330f721f)" style="fill: none; stroke: #b0b0b0; stroke-width: 0.8; stroke-linecap: square"/>
     </g>
     <g id="line2d_4">
      <g>
       <use xlink:href="#m91ab7277b0" x="153.496286" y="309.4" style="stroke: #000000; stroke-width: 0.8"/>
      </g>
     </g>
     <g id="text_2">
      <!-- −0.00012 -->
      <g transform="translate(128.629879 323.998438) scale(0.1 -0.1)">
       <defs>
        <path id="DejaVuSans-32" d="M 1228 531 
L 3431 531 
L 3431 0 
L 469 0 
L 469 531 
Q 828 903 1448 1529 
Q 2069 2156 2228 2338 
Q 2531 2678 2651 2914 
Q 2772 3150 2772 3378 
Q 2772 3750 2511 3984 
Q 2250 4219 1831 4219 
Q 1534 4219 1204 4116 
Q 875 4013 500 3803 
L 500 4441 
Q 881 4594 1212 4672 
Q 1544 4750 1819 4750 
Q 2544 4750 2975 4387 
Q 3406 4025 3406 3419 
Q 3406 3131 3298 2873 
Q 3191 2616 2906 2266 
Q 2828 2175 2409 1742 
Q 1991 1309 1228 531 
z
" transform="scale(0.015625)"/>
       </defs>
       <use xlink:href="#DejaVuSans-2212"/>
       <use xlink:href="#DejaVuSans-30" transform="translate(83.789062 0)"/>
       <use xlink:href="#DejaVuSans-2e" transform="translate(147.412109 0)"/>
       <use xlink:href="#DejaVuSans-30" transform="translate(179.199219 0)"/>
       <use xlink:href="#DejaVuSans-30" transform="translate(242.822266 0)"/>
       <use xlink:href="#DejaVuSans-30" transform="translate(306.445312 0)"/>
       <use xlink:href="#DejaVuSans-31" transform="translate(370.068359 0)"/>
       <use xlink:href="#DejaVuSans-32" transform="translate(433.691406 0)"/>
      </g>
     </g>
    </g>
    <g id="xtick_3">
     <g id="line2d_5">
      <path d="M 218.221254 309.4 
L 218.221254 29.832 
" clip-path="url(#pac330f721f)" style="fill: none; stroke: #b0b0b0; stroke-width: 0.8; stroke-linecap: square"/>
     </g>
     <g id="line2d_6">
      <g>
       <use xlink:href="#m91ab7277b0" x="218.221254" y="309.4" style="stroke: #000000; stroke-width: 0.8"/>
      </g>
     </g>
     <g id="text_3">
      <!-- −0.00010 -->
      <g transform="translate(193.354848 323.998438) scale(0.1 -0.1)">
       <use xlink:href="#DejaVuSans-2212"/>
       <use xlink:href="#DejaVuSans-30" transform="translate(83.789062 0)"/>
       <use xlink:href="#DejaVuSans-2e" transform="translate(147.412109 0)"/>
       <use xlink:href="#DejaVuSans-30" transform="translate(179.199219 0)"/>
       <use xlink:href="#DejaVuSans-30" transform="translate(242.822266 0)"/>
       <use xlink:href="#DejaVuSans-30" transform="translate(306.445312 0)"/>
       <use xlink:href="#DejaVuSans-31" transform="translate(370.068359 0)"/>
       <use xlink:href="#DejaVuSans-30" transform="translate(433.691406 0)"/>
      </g>
     </g>
    </g>
    <g id="xtick_4">
     <g id="line2d_7">
      <path d="M 282.946222 309.4 
L 282.946222 29.832 
" clip-path="url(#pac330f721f)" style="fill: none; stroke: #b0b0b0; stroke-width: 0.8; stroke-linecap: square"/>
     </g>
     <g id="line2d_8">
      <g>
       <use xlink:href="#m91ab7277b0" x="282.946222" y="309.4" style="stroke: #000000; stroke-width: 0.8"/>
      </g>
     </g>
     <g id="text_4">
      <!-- −0.00008 -->
      <g transform="translate(258.079816 323.998438) scale(0.1 -0.1)">
       <defs>
        <path id="DejaVuSans-38" d="M 2034 2216 
Q 1584 2216 1326 1975 
Q 1069 1734 1069 1313 
Q 1069 891 1326 650 
Q 1584 409 2034 409 
Q 2484 409 2743 651 
Q 3003 894 3003 1313 
Q 3003 1734 2745 1975 
Q 2488 2216 2034 2216 
z
M 1403 2484 
Q 997 2584 770 2862 
Q 544 3141 544 3541 
Q 544 4100 942 4425 
Q 1341 4750 2034 4750 
Q 2731 4750 3128 4425 
Q 3525 4100 3525 3541 
Q 3525 3141 3298 2862 
Q 3072 2584 2669 2484 
Q 3125 2378 3379 2068 
Q 3634 1759 3634 1313 
Q 3634 634 3220 271 
Q 2806 -91 2034 -91 
Q 1263 -91 848 271 
Q 434 634 434 1313 
Q 434 1759 690 2068 
Q 947 2378 1403 2484 
z
M 1172 3481 
Q 1172 3119 1398 2916 
Q 1625 2713 2034 2713 
Q 2441 2713 2670 2916 
Q 2900 3119 2900 3481 
Q 2900 3844 2670 4047 
Q 2441 4250 2034 4250 
Q 1625 4250 1398 4047 
Q 1172 3844 1172 3481 
z
" transform="scale(0.015625)"/>
       </defs>
       <use xlink:href="#DejaVuSans-2212"/>
       <use xlink:href="#DejaVuSans-30" transform="translate(83.789062 0)"/>
       <use xlink:href="#DejaVuSans-2e" transform="translate(147.412109 0)"/>
       <use xlink:href="#DejaVuSans-30" transform="translate(179.199219 0)"/>
       <use xlink:href="#DejaVuSans-30" transform="translate(242.822266 0)"/>
       <use xlink:href="#DejaVuSans-30" transform="translate(306.445312 0)"/>
       <use xlink:href="#DejaVuSans-30" transform="translate(370.068359 0)"/>
       <use xlink:href="#DejaVuSans-38" transform="translate(433.691406 0)"/>
      </g>
     </g>
    </g>
    <g id="xtick_5">
     <g id="line2d_9">
      <path d="M 347.67119 309.4 
L 347.67119 29.832 
" clip-path="url(#pac330f721f)" style="fill: none; stroke: #b0b0b0; stroke-width: 0.8; stroke-linecap: square"/>
     </g>
     <g id="line2d_10">
      <g>
       <use xlink:href="#m91ab7277b0" x="347.67119" y="309.4" style="stroke: #000000; stroke-width: 0.8"/>
      </g>
     </g>
     <g id="text_5">
      <!-- −0.00006 -->
      <g transform="translate(322.804784 323.998438) scale(0.1 -0.1)">
       <defs>
        <path id="DejaVuSans-36" d="M 2113 2584 
Q 1688 2584 1439 2293 
Q 1191 2003 1191 1497 
Q 1191 994 1439 701 
Q 1688 409 2113 409 
Q 2538 409 2786 701 
Q 3034 994 3034 1497 
Q 3034 2003 2786 2293 
Q 2538 2584 2113 2584 
z
M 3366 4563 
L 3366 3988 
Q 3128 4100 2886 4159 
Q 2644 4219 2406 4219 
Q 1781 4219 1451 3797 
Q 1122 3375 1075 2522 
Q 1259 2794 1537 2939 
Q 1816 3084 2150 3084 
Q 2853 3084 3261 2657 
Q 3669 2231 3669 1497 
Q 3669 778 3244 343 
Q 2819 -91 2113 -91 
Q 1303 -91 875 529 
Q 447 1150 447 2328 
Q 447 3434 972 4092 
Q 1497 4750 2381 4750 
Q 2619 4750 2861 4703 
Q 3103 4656 3366 4563 
z
" transform="scale(0.015625)"/>
       </defs>
       <use xlink:href="#DejaVuSans-2212"/>
       <use xlink:href="#DejaVuSans-30" transform="translate(83.789062 0)"/>
       <use xlink:href="#DejaVuSans-2e" transform="translate(147.412109 0)"/>
       <use xlink:href="#DejaVuSans-30" transform="translate(179.199219 0)"/>
       <use xlink:href="#DejaVuSans-30" transform="translate(242.822266 0)"/>
       <use xlink:href="#DejaVuSans-30" transform="translate(306.445312 0)"/>
       <use xlink:href="#DejaVuSans-30" transform="translate(370.068359 0)"/>
       <use xlink:href="#DejaVuSans-36" transform="translate(433.691406 0)"/>
      </g>
     </g>
    </g>
    <g id="xtick_6">
     <g id="line2d_11">
      <path d="M 412.396159 309.4 
L 412.396159 29.832 
" clip-path="url(#pac330f721f)" style="fill: none; stroke: #b0b0b0; stroke-width: 0.8; stroke-linecap: square"/>
     </g>
     <g id="line2d_12">
      <g>
       <use xlink:href="#m91ab7277b0" x="412.396159" y="309.4" style="stroke: #000000; stroke-width: 0.8"/>
      </g>
     </g>
     <g id="text_6">
      <!-- −0.00004 -->
      <g transform="translate(387.529752 323.998438) scale(0.1 -0.1)">
       <use xlink:href="#DejaVuSans-2212"/>
       <use xlink:href="#DejaVuSans-30" transform="translate(83.789062 0)"/>
       <use xlink:href="#DejaVuSans-2e" transform="translate(147.412109 0)"/>
       <use xlink:href="#DejaVuSans-30" transform="translate(179.199219 0)"/>
       <use xlink:href="#DejaVuSans-30" transform="translate(242.822266 0)"/>
       <use xlink:href="#DejaVuSans-30" transform="translate(306.445312 0)"/>
       <use xlink:href="#DejaVuSans-30" transform="translate(370.068359 0)"/>
       <use xlink:href="#DejaVuSans-34" transform="translate(433.691406 0)"/>
      </g>
     </g>
    </g>
    <g id="xtick_7">
     <g id="line2d_13">
      <path d="M 477.121127 309.4 
L 477.121127 29.832 
" clip-path="url(#pac330f721f)" style="fill: none; stroke: #b0b0b0; stroke-width: 0.8; stroke-linecap: square"/>
     </g>
     <g id="line2d_14">
      <g>
       <use xlink:href="#m91ab7277b0" x="477.121127" y="309.4" style="stroke: #000000; stroke-width: 0.8"/>
      </g>
     </g>
     <g id="text_7">
      <!-- −0.00002 -->
      <g transform="translate(452.254721 323.998438) scale(0.1 -0.1)">
       <use xlink:href="#DejaVuSans-2212"/>
       <use xlink:href="#DejaVuSans-30" transform="translate(83.789062 0)"/>
       <use xlink:href="#DejaVuSans-2e" transform="translate(147.412109 0)"/>
       <use xlink:href="#DejaVuSans-30" transform="translate(179.199219 0)"/>
       <use xlink:href="#DejaVuSans-30" transform="translate(242.822266 0)"/>
       <use xlink:href="#DejaVuSans-30" transform="translate(306.445312 0)"/>
       <use xlink:href="#DejaVuSans-30" transform="translate(370.068359 0)"/>
       <use xlink:href="#DejaVuSans-32" transform="translate(433.691406 0)"/>
      </g>
     </g>
    </g>
    <g id="xtick_8">
     <g id="line2d_15">
      <path d="M 541.846095 309.4 
L 541.846095 29.832 
" clip-path="url(#pac330f721f)" style="fill: none; stroke: #b0b0b0; stroke-width: 0.8; stroke-linecap: square"/>
     </g>
     <g id="line2d_16">
      <g>
       <use xlink:href="#m91ab7277b0" x="541.846095" y="309.4" style="stroke: #000000; stroke-width: 0.8"/>
      </g>
     </g>
     <g id="text_8">
      <!-- 0.00000 -->
      <g transform="translate(521.169533 323.998438) scale(0.1 -0.1)">
       <use xlink:href="#DejaVuSans-30"/>
       <use xlink:href="#DejaVuSans-2e" transform="translate(63.623047 0)"/>
       <use xlink:href="#DejaVuSans-30" transform="translate(95.410156 0)"/>
       <use xlink:href="#DejaVuSans-30" transform="translate(159.033203 0)"/>
       <use xlink:href="#DejaVuSans-30" transform="translate(222.65625 0)"/>
       <use xlink:href="#DejaVuSans-30" transform="translate(286.279297 0)"/>
       <use xlink:href="#DejaVuSans-30" transform="translate(349.902344 0)"/>
      </g>
     </g>
    </g>
    <g id="text_9">
     <!-- $\left(\frac{1}{R}\right)\left(\frac{1}{T} - \frac{1}{T_0}\right)$ -->
     <g transform="translate(283.847955 339.678125) scale(0.1 -0.1)">
      <defs>
       <path id="STIXSizeOneSym-Regular-28" d="M 2445 -858 
L 2445 -1050 
Q 1728 -371 1309 630 
Q 890 1632 890 2886 
Q 890 4122 1309 5136 
Q 1728 6150 2445 6822 
L 2445 6630 
Q 1408 5363 1408 2886 
Q 1408 410 2445 -858 
z
" transform="scale(0.015625)"/>
       <path id="DejaVuSans-Oblique-52" d="M 1613 4147 
L 1294 2491 
L 2106 2491 
Q 2584 2491 2879 2755 
Q 3175 3019 3175 3444 
Q 3175 3784 2976 3965 
Q 2778 4147 2406 4147 
L 1613 4147 
z
M 2772 2241 
Q 2972 2194 3105 2009 
Q 3238 1825 3413 1275 
L 3809 0 
L 3144 0 
L 2778 1197 
Q 2638 1659 2453 1815 
Q 2269 1972 1888 1972 
L 1191 1972 
L 806 0 
L 172 0 
L 1081 4666 
L 2503 4666 
Q 3150 4666 3495 4373 
Q 3841 4081 3841 3531 
Q 3841 3044 3547 2687 
Q 3253 2331 2772 2241 
z
" transform="scale(0.015625)"/>
       <path id="STIXSizeOneSym-Regular-29" d="M 550 6630 
L 550 6822 
Q 1267 6144 1686 5142 
Q 2106 4141 2106 2886 
Q 2106 1651 1686 636 
Q 1267 -378 550 -1050 
L 550 -858 
Q 1587 410 1587 2886 
Q 1587 5363 550 6630 
z
" transform="scale(0.015625)"/>
       <path id="STIXSizeTwoSym-Regular-28" d="M 3219 -1555 
L 3219 -1786 
Q 2144 -774 1517 730 
Q 890 2234 890 4115 
Q 890 6003 1533 7593 
Q 2176 9184 3219 10022 
L 3219 9811 
Q 2490 9062 1994 7606 
Q 1498 6150 1498 4115 
Q 1498 563 3219 -1555 
z
" transform="scale(0.015625)"/>
       <path id="DejaVuSans-Oblique-54" d="M 378 4666 
L 4325 4666 
L 4225 4134 
L 2559 4134 
L 1759 0 
L 1125 0 
L 1925 4134 
L 275 4134 
L 378 4666 
z
" transform="scale(0.015625)"/>
       <path id="STIXSizeTwoSym-Regular-29" d="M 730 9792 
L 730 10022 
Q 1805 9011 2432 7507 
Q 3059 6003 3059 4115 
Q 3059 2234 2416 643 
Q 1773 -947 730 -1786 
L 730 -1574 
Q 1459 -826 1955 633 
Q 2451 2093 2451 4115 
Q 2451 7674 730 9792 
z
" transform="scale(0.015625)"/>
      </defs>
      <use xlink:href="#STIXSizeOneSym-Regular-28" transform="translate(0 -19.865781) scale(1.083892)"/>
      <use xlink:href="#DejaVuSans-31" transform="translate(52.719498 44.699844) scale(0.7)"/>
      <use xlink:href="#DejaVuSans-Oblique-52" transform="translate(50.719498 -37.584531) scale(0.7)"/>
      <use xlink:href="#STIXSizeOneSym-Regular-29" transform="translate(111.857193 -19.865781) scale(1.083892)"/>
      <use xlink:href="#STIXSizeTwoSym-Regular-28" transform="translate(162.576691 -27.71875) scale(0.788617)"/>
      <use xlink:href="#DejaVuSans-31" transform="translate(209.034058 44.699844) scale(0.7)"/>
      <use xlink:href="#DejaVuSans-Oblique-54" transform="translate(210.034058 -37.584531) scale(0.7)"/>
      <use xlink:href="#DejaVuSans-2212" transform="translate(285.552612 0.902969)"/>
      <use xlink:href="#DejaVuSans-31" transform="translate(404.824097 44.699844) scale(0.7)"/>
      <use xlink:href="#DejaVuSans-Oblique-54" transform="translate(388.824097 -37.584531) scale(0.7)"/>
      <use xlink:href="#DejaVuSans-30" transform="translate(431.582886 -49.068906) scale(0.49)"/>
      <use xlink:href="#STIXSizeTwoSym-Regular-29" transform="translate(477.172241 -27.71875) scale(0.788617)"/>
      <path d="M 50.719498 19.699844 
L 50.719498 25.949844 
L 99.357193 25.949844 
L 99.357193 19.699844 
L 50.719498 19.699844 
z
"/>
      <path d="M 209.034058 19.699844 
L 209.034058 25.949844 
L 253.57019 25.949844 
L 253.57019 19.699844 
L 209.034058 19.699844 
z
"/>
      <path d="M 388.824097 19.699844 
L 388.824097 25.949844 
L 464.672241 25.949844 
L 464.672241 19.699844 
L 388.824097 19.699844 
z
"/>
     </g>
    </g>
   </g>
   <g id="matplotlib.axis_2">
    <g id="ytick_1">
     <g id="line2d_17">
      <path d="M 55.28 256.39532 
L 565.015909 256.39532 
" clip-path="url(#pac330f721f)" style="fill: none; stroke: #b0b0b0; stroke-width: 0.8; stroke-linecap: square"/>
     </g>
     <g id="line2d_18">
      <defs>
       <path id="mf9f5f1b52b" d="M 0 0 
L -3.5 0 
" style="stroke: #000000; stroke-width: 0.8"/>
      </defs>
      <g>
       <use xlink:href="#mf9f5f1b52b" x="55.28" y="256.39532" style="stroke: #000000; stroke-width: 0.8"/>
      </g>
     </g>
     <g id="text_10">
      <!-- −4 -->
      <g transform="translate(33.537813 260.194539) scale(0.1 -0.1)">
       <use xlink:href="#DejaVuSans-2212"/>
       <use xlink:href="#DejaVuSans-34" transform="translate(83.789062 0)"/>
      </g>
     </g>
    </g>
    <g id="ytick_2">
     <g id="line2d_19">
      <path d="M 55.28 202.931399 
L 565.015909 202.931399 
" clip-path="url(#pac330f721f)" style="fill: none; stroke: #b0b0b0; stroke-width: 0.8; stroke-linecap: square"/>
     </g>
     <g id="line2d_20">
      <g>
       <use xlink:href="#mf9f5f1b52b" x="55.28" y="202.931399" style="stroke: #000000; stroke-width: 0.8"/>
      </g>
     </g>
     <g id="text_11">
      <!-- −3 -->
      <g transform="translate(33.537813 206.730618) scale(0.1 -0.1)">
       <defs>
        <path id="DejaVuSans-33" d="M 2597 2516 
Q 3050 2419 3304 2112 
Q 3559 1806 3559 1356 
Q 3559 666 3084 287 
Q 2609 -91 1734 -91 
Q 1441 -91 1130 -33 
Q 819 25 488 141 
L 488 750 
Q 750 597 1062 519 
Q 1375 441 1716 441 
Q 2309 441 2620 675 
Q 2931 909 2931 1356 
Q 2931 1769 2642 2001 
Q 2353 2234 1838 2234 
L 1294 2234 
L 1294 2753 
L 1863 2753 
Q 2328 2753 2575 2939 
Q 2822 3125 2822 3475 
Q 2822 3834 2567 4026 
Q 2313 4219 1838 4219 
Q 1578 4219 1281 4162 
Q 984 4106 628 3988 
L 628 4550 
Q 988 4650 1302 4700 
Q 1616 4750 1894 4750 
Q 2613 4750 3031 4423 
Q 3450 4097 3450 3541 
Q 3450 3153 3228 2886 
Q 3006 2619 2597 2516 
z
" transform="scale(0.015625)"/>
       </defs>
       <use xlink:href="#DejaVuSans-2212"/>
       <use xlink:href="#DejaVuSans-33" transform="translate(83.789062 0)"/>
      </g>
     </g>
    </g>
    <g id="ytick_3">
     <g id="line2d_21">
      <path d="M 55.28 149.467478 
L 565.015909 149.467478 
" clip-path="url(#pac330f721f)" style="fill: none; stroke: #b0b0b0; stroke-width: 0.8; stroke-linecap: square"/>
     </g>
     <g id="line2d_22">
      <g>
       <use xlink:href="#mf9f5f1b52b" x="55.28" y="149.467478" style="stroke: #000000; stroke-width: 0.8"/>
      </g>
     </g>
     <g id="text_12">
      <!-- −2 -->
      <g transform="translate(33.537813 153.266697) scale(0.1 -0.1)">
       <use xlink:href="#DejaVuSans-2212"/>
       <use xlink:href="#DejaVuSans-32" transform="translate(83.789062 0)"/>
      </g>
     </g>
    </g>
    <g id="ytick_4">
     <g id="line2d_23">
      <path d="M 55.28 96.003557 
L 565.015909 96.003557 
" clip-path="url(#pac330f721f)" style="fill: none; stroke: #b0b0b0; stroke-width: 0.8; stroke-linecap: square"/>
     </g>
     <g id="line2d_24">
      <g>
       <use xlink:href="#mf9f5f1b52b" x="55.28" y="96.003557" style="stroke: #000000; stroke-width: 0.8"/>
      </g>
     </g>
     <g id="text_13">
      <!-- −1 -->
      <g transform="translate(33.537813 99.802776) scale(0.1 -0.1)">
       <use xlink:href="#DejaVuSans-2212"/>
       <use xlink:href="#DejaVuSans-31" transform="translate(83.789062 0)"/>
      </g>
     </g>
    </g>
    <g id="ytick_5">
     <g id="line2d_25">
      <path d="M 55.28 42.539636 
L 565.015909 42.539636 
" clip-path="url(#pac330f721f)" style="fill: none; stroke: #b0b0b0; stroke-width: 0.8; stroke-linecap: square"/>
     </g>
     <g id="line2d_26">
      <g>
       <use xlink:href="#mf9f5f1b52b" x="55.28" y="42.539636" style="stroke: #000000; stroke-width: 0.8"/>
      </g>
     </g>
     <g id="text_14">
      <!-- 0 -->
      <g transform="translate(41.9175 46.338855) scale(0.1 -0.1)">
       <use xlink:href="#DejaVuSans-30"/>
      </g>
     </g>
    </g>
    <g id="text_15">
     <!-- $\ln\left(\frac{f_0}{f}\right)$ -->
     <g transform="translate(25.437813 183.366) rotate(-90) scale(0.1 -0.1)">
      <defs>
       <path id="DejaVuSans-6c" d="M 603 4863 
L 1178 4863 
L 1178 0 
L 603 0 
L 603 4863 
z
" transform="scale(0.015625)"/>
       <path id="DejaVuSans-6e" d="M 3513 2113 
L 3513 0 
L 2938 0 
L 2938 2094 
Q 2938 2591 2744 2837 
Q 2550 3084 2163 3084 
Q 1697 3084 1428 2787 
Q 1159 2491 1159 1978 
L 1159 0 
L 581 0 
L 581 3500 
L 1159 3500 
L 1159 2956 
Q 1366 3272 1645 3428 
Q 1925 3584 2291 3584 
Q 2894 3584 3203 3211 
Q 3513 2838 3513 2113 
z
" transform="scale(0.015625)"/>
       <path id="DejaVuSans-Oblique-66" d="M 3059 4863 
L 2969 4384 
L 2419 4384 
Q 2106 4384 1964 4261 
Q 1822 4138 1753 3809 
L 1691 3500 
L 2638 3500 
L 2553 3053 
L 1606 3053 
L 1013 0 
L 434 0 
L 1031 3053 
L 481 3053 
L 563 3500 
L 1113 3500 
L 1159 3744 
Q 1278 4363 1576 4613 
Q 1875 4863 2516 4863 
L 3059 4863 
z
" transform="scale(0.015625)"/>
      </defs>
      <use xlink:href="#DejaVuSans-6c" transform="translate(0 0.832969)"/>
      <use xlink:href="#DejaVuSans-6e" transform="translate(27.783203 0.832969)"/>
      <use xlink:href="#STIXSizeTwoSym-Regular-28" transform="translate(107.397786 -17.215469) scale(0.811974)"/>
      <use xlink:href="#DejaVuSans-Oblique-66" transform="translate(155.254033 56.810938) scale(0.7)"/>
      <use xlink:href="#DejaVuSans-30" transform="translate(179.897587 45.326562) scale(0.49)"/>
      <use xlink:href="#DejaVuSans-Oblique-66" transform="translate(172.254033 -39.809219) scale(0.7)"/>
      <use xlink:href="#STIXSizeTwoSym-Regular-29" transform="translate(225.486943 -17.215469) scale(0.811974)"/>
      <path d="M 155.254033 19.629844 
L 155.254033 25.879844 
L 212.986943 25.879844 
L 212.986943 19.629844 
L 155.254033 19.629844 
z
"/>
     </g>
    </g>
   </g>
   <g id="line2d_27">
    <path d="M 541.846095 42.539636 
L 373.338356 165.644864 
L 78.449814 288.750091 
" clip-path="url(#pac330f721f)" style="fill: none; stroke-dasharray: 5.55,2.4; stroke-dashoffset: 0; stroke: #1f77b4; stroke-opacity: 0.7; stroke-width: 1.5"/>
    <defs>
     <path id="m50b306d33d" d="M -5 0 
L 5 0 
M 0 5 
L 0 -5 
" style="stroke: #1f77b4; stroke-opacity: 0.7"/>
    </defs>
    <g clip-path="url(#pac330f721f)">
     <use xlink:href="#m50b306d33d" x="541.846095" y="42.539636" style="fill: #1f77b4; fill-opacity: 0.7; stroke: #1f77b4; stroke-opacity: 0.7"/>
     <use xlink:href="#m50b306d33d" x="373.338356" y="165.644864" style="fill: #1f77b4; fill-opacity: 0.7; stroke: #1f77b4; stroke-opacity: 0.7"/>
     <use xlink:href="#m50b306d33d" x="78.449814" y="288.750091" style="fill: #1f77b4; fill-opacity: 0.7; stroke: #1f77b4; stroke-opacity: 0.7"/>
    </g>
   </g>
   <g id="line2d_28">
    <path d="M 78.449814 296.692364 
L 83.130585 294.265558 
L 87.811355 291.838753 
L 92.492126 289.411947 
L 97.172896 286.985141 
L 101.853667 284.558336 
L 106.534437 282.13153 
L 111.215208 279.704725 
L 115.895978 277.277919 
L 120.576749 274.851114 
L 125.257519 272.424308 
L 129.93829 269.997503 
L 134.61906 267.570697 
L 139.299831 265.143891 
L 143.980601 262.717086 
L 148.661372 260.29028 
L 153.342142 257.863475 
L 158.022913 255.436669 
L 162.703683 253.009864 
L 167.384454 250.583058 
L 172.065224 248.156253 
L 176.745995 245.729447 
L 181.426765 243.302641 
L 186.107536 240.875836 
L 190.788306 238.44903 
L 195.469077 236.022225 
L 200.149847 233.595419 
L 204.830618 231.168614 
L 209.511388 228.741808 
L 214.192159 226.315003 
L 218.87293 223.888197 
L 223.5537 221.461391 
L 228.234471 219.034586 
L 232.915241 216.60778 
L 237.596012 214.180975 
L 242.276782 211.754169 
L 246.957553 209.327364 
L 251.638323 206.900558 
L 256.319094 204.473753 
L 260.999864 202.046947 
L 265.680635 199.620141 
L 270.361405 197.193336 
L 275.042176 194.76653 
L 279.722946 192.339725 
L 284.403717 189.912919 
L 289.084487 187.486114 
L 293.765258 185.059308 
L 298.446028 182.632503 
L 303.126799 180.205697 
L 307.807569 177.778891 
L 312.48834 175.352086 
L 317.16911 172.92528 
L 321.849881 170.498475 
L 326.530651 168.071669 
L 331.211422 165.644864 
L 335.892192 163.218058 
L 340.572963 160.791253 
L 345.253733 158.364447 
L 349.934504 155.937641 
L 354.615274 153.510836 
L 359.296045 151.08403 
L 363.976815 148.657225 
L 368.657586 146.230419 
L 373.338356 143.803614 
L 378.019127 141.376808 
L 382.699898 138.950003 
L 387.380668 136.523197 
L 392.061439 134.096391 
L 396.742209 131.669586 
L 401.42298 129.24278 
L 406.10375 126.815975 
L 410.784521 124.389169 
L 415.465291 121.962364 
L 420.146062 119.535558 
L 424.826832 117.108753 
L 429.507603 114.681947 
L 434.188373 112.255141 
L 438.869144 109.828336 
L 443.549914 107.40153 
L 448.230685 104.974725 
L 452.911455 102.547919 
L 457.592226 100.121114 
L 462.272996 97.694308 
L 466.953767 95.267503 
L 471.634537 92.840697 
L 476.315308 90.413891 
L 480.996078 87.987086 
L 485.676849 85.56028 
L 490.357619 83.133475 
L 495.03839 80.706669 
L 499.71916 78.279864 
L 504.399931 75.853058 
L 509.080701 73.426253 
L 513.761472 70.999447 
L 518.442242 68.572641 
L 523.123013 66.145836 
L 527.803783 63.71903 
L 532.484554 61.292225 
L 537.165325 58.865419 
L 541.846095 56.438614 
" clip-path="url(#pac330f721f)" style="fill: none; stroke: #ff7f0e; stroke-width: 1.5; stroke-linecap: square"/>
   </g>
   <g id="patch_3">
    <path d="M 55.28 309.4 
L 55.28 29.832 
" style="fill: none; stroke: #000000; stroke-width: 0.8; stroke-linejoin: miter; stroke-linecap: square"/>
   </g>
   <g id="patch_4">
    <path d="M 565.015909 309.4 
L 565.015909 29.832 
" style="fill: none; stroke: #000000; stroke-width: 0.8; stroke-linejoin: miter; stroke-linecap: square"/>
   </g>
   <g id="patch_5">
    <path d="M 55.28 309.4 
L 565.015909 309.4 
" style="fill: none; stroke: #000000; stroke-width: 0.8; stroke-linejoin: miter; stroke-linecap: square"/>
   </g>
   <g id="patch_6">
    <path d="M 55.28 29.832 
L 565.015909 29.832 
" style="fill: none; stroke: #000000; stroke-width: 0.8; stroke-linejoin: miter; stroke-linecap: square"/>
   </g>
   <g id="text_16">
    <!-- Analyse d'Arrhenius - Transition $\alpha$ PMMA80, $r^2$ = 0.9758 -->
    <g transform="translate(141.607955 23.832) scale(0.12 -0.12)">
     <defs>
      <path id="DejaVuSans-41" d="M 2188 4044 
L 1331 1722 
L 3047 1722 
L 2188 4044 
z
M 1831 4666 
L 2547 4666 
L 4325 0 
L 3669 0 
L 3244 1197 
L 1141 1197 
L 716 0 
L 50 0 
L 1831 4666 
z
" transform="scale(0.015625)"/>
      <path id="DejaVuSans-61" d="M 2194 1759 
Q 1497 1759 1228 1600 
Q 959 1441 959 1056 
Q 959 750 1161 570 
Q 1363 391 1709 391 
Q 2188 391 2477 730 
Q 2766 1069 2766 1631 
L 2766 1759 
L 2194 1759 
z
M 3341 1997 
L 3341 0 
L 2766 0 
L 2766 531 
Q 2569 213 2275 61 
Q 1981 -91 1556 -91 
Q 1019 -91 701 211 
Q 384 513 384 1019 
Q 384 1609 779 1909 
Q 1175 2209 1959 2209 
L 2766 2209 
L 2766 2266 
Q 2766 2663 2505 2880 
Q 2244 3097 1772 3097 
Q 1472 3097 1187 3025 
Q 903 2953 641 2809 
L 641 3341 
Q 956 3463 1253 3523 
Q 1550 3584 1831 3584 
Q 2591 3584 2966 3190 
Q 3341 2797 3341 1997 
z
" transform="scale(0.015625)"/>
      <path id="DejaVuSans-79" d="M 2059 -325 
Q 1816 -950 1584 -1140 
Q 1353 -1331 966 -1331 
L 506 -1331 
L 506 -850 
L 844 -850 
Q 1081 -850 1212 -737 
Q 1344 -625 1503 -206 
L 1606 56 
L 191 3500 
L 800 3500 
L 1894 763 
L 2988 3500 
L 3597 3500 
L 2059 -325 
z
" transform="scale(0.015625)"/>
      <path id="DejaVuSans-73" d="M 2834 3397 
L 2834 2853 
Q 2591 2978 2328 3040 
Q 2066 3103 1784 3103 
Q 1356 3103 1142 2972 
Q 928 2841 928 2578 
Q 928 2378 1081 2264 
Q 1234 2150 1697 2047 
L 1894 2003 
Q 2506 1872 2764 1633 
Q 3022 1394 3022 966 
Q 3022 478 2636 193 
Q 2250 -91 1575 -91 
Q 1294 -91 989 -36 
Q 684 19 347 128 
L 347 722 
Q 666 556 975 473 
Q 1284 391 1588 391 
Q 1994 391 2212 530 
Q 2431 669 2431 922 
Q 2431 1156 2273 1281 
Q 2116 1406 1581 1522 
L 1381 1569 
Q 847 1681 609 1914 
Q 372 2147 372 2553 
Q 372 3047 722 3315 
Q 1072 3584 1716 3584 
Q 2034 3584 2315 3537 
Q 2597 3491 2834 3397 
z
" transform="scale(0.015625)"/>
      <path id="DejaVuSans-65" d="M 3597 1894 
L 3597 1613 
L 953 1613 
Q 991 1019 1311 708 
Q 1631 397 2203 397 
Q 2534 397 2845 478 
Q 3156 559 3463 722 
L 3463 178 
Q 3153 47 2828 -22 
Q 2503 -91 2169 -91 
Q 1331 -91 842 396 
Q 353 884 353 1716 
Q 353 2575 817 3079 
Q 1281 3584 2069 3584 
Q 2775 3584 3186 3129 
Q 3597 2675 3597 1894 
z
M 3022 2063 
Q 3016 2534 2758 2815 
Q 2500 3097 2075 3097 
Q 1594 3097 1305 2825 
Q 1016 2553 972 2059 
L 3022 2063 
z
" transform="scale(0.015625)"/>
      <path id="DejaVuSans-20" transform="scale(0.015625)"/>
      <path id="DejaVuSans-64" d="M 2906 2969 
L 2906 4863 
L 3481 4863 
L 3481 0 
L 2906 0 
L 2906 525 
Q 2725 213 2448 61 
Q 2172 -91 1784 -91 
Q 1150 -91 751 415 
Q 353 922 353 1747 
Q 353 2572 751 3078 
Q 1150 3584 1784 3584 
Q 2172 3584 2448 3432 
Q 2725 3281 2906 2969 
z
M 947 1747 
Q 947 1113 1208 752 
Q 1469 391 1925 391 
Q 2381 391 2643 752 
Q 2906 1113 2906 1747 
Q 2906 2381 2643 2742 
Q 2381 3103 1925 3103 
Q 1469 3103 1208 2742 
Q 947 2381 947 1747 
z
" transform="scale(0.015625)"/>
      <path id="DejaVuSans-27" d="M 1147 4666 
L 1147 2931 
L 616 2931 
L 616 4666 
L 1147 4666 
z
" transform="scale(0.015625)"/>
      <path id="DejaVuSans-72" d="M 2631 2963 
Q 2534 3019 2420 3045 
Q 2306 3072 2169 3072 
Q 1681 3072 1420 2755 
Q 1159 2438 1159 1844 
L 1159 0 
L 581 0 
L 581 3500 
L 1159 3500 
L 1159 2956 
Q 1341 3275 1631 3429 
Q 1922 3584 2338 3584 
Q 2397 3584 2469 3576 
Q 2541 3569 2628 3553 
L 2631 2963 
z
" transform="scale(0.015625)"/>
      <path id="DejaVuSans-68" d="M 3513 2113 
L 3513 0 
L 2938 0 
L 2938 2094 
Q 2938 2591 2744 2837 
Q 2550 3084 2163 3084 
Q 1697 3084 1428 2787 
Q 1159 2491 1159 1978 
L 1159 0 
L 581 0 
L 581 4863 
L 1159 4863 
L 1159 2956 
Q 1366 3272 1645 3428 
Q 1925 3584 2291 3584 
Q 2894 3584 3203 3211 
Q 3513 2838 3513 2113 
z
" transform="scale(0.015625)"/>
      <path id="DejaVuSans-69" d="M 603 3500 
L 1178 3500 
L 1178 0 
L 603 0 
L 603 3500 
z
M 603 4863 
L 1178 4863 
L 1178 4134 
L 603 4134 
L 603 4863 
z
" transform="scale(0.015625)"/>
      <path id="DejaVuSans-75" d="M 544 1381 
L 544 3500 
L 1119 3500 
L 1119 1403 
Q 1119 906 1312 657 
Q 1506 409 1894 409 
Q 2359 409 2629 706 
Q 2900 1003 2900 1516 
L 2900 3500 
L 3475 3500 
L 3475 0 
L 2900 0 
L 2900 538 
Q 2691 219 2414 64 
Q 2138 -91 1772 -91 
Q 1169 -91 856 284 
Q 544 659 544 1381 
z
M 1991 3584 
L 1991 3584 
z
" transform="scale(0.015625)"/>
      <path id="DejaVuSans-2d" d="M 313 2009 
L 1997 2009 
L 1997 1497 
L 313 1497 
L 313 2009 
z
" transform="scale(0.015625)"/>
      <path id="DejaVuSans-54" d="M -19 4666 
L 3928 4666 
L 3928 4134 
L 2272 4134 
L 2272 0 
L 1638 0 
L 1638 4134 
L -19 4134 
L -19 4666 
z
" transform="scale(0.015625)"/>
      <path id="DejaVuSans-74" d="M 1172 4494 
L 1172 3500 
L 2356 3500 
L 2356 3053 
L 1172 3053 
L 1172 1153 
Q 1172 725 1289 603 
Q 1406 481 1766 481 
L 2356 481 
L 2356 0 
L 1766 0 
Q 1100 0 847 248 
Q 594 497 594 1153 
L 594 3053 
L 172 3053 
L 172 3500 
L 594 3500 
L 594 4494 
L 1172 4494 
z
" transform="scale(0.015625)"/>
      <path id="DejaVuSans-6f" d="M 1959 3097 
Q 1497 3097 1228 2736 
Q 959 2375 959 1747 
Q 959 1119 1226 758 
Q 1494 397 1959 397 
Q 2419 397 2687 759 
Q 2956 1122 2956 1747 
Q 2956 2369 2687 2733 
Q 2419 3097 1959 3097 
z
M 1959 3584 
Q 2709 3584 3137 3096 
Q 3566 2609 3566 1747 
Q 3566 888 3137 398 
Q 2709 -91 1959 -91 
Q 1206 -91 779 398 
Q 353 888 353 1747 
Q 353 2609 779 3096 
Q 1206 3584 1959 3584 
z
" transform="scale(0.015625)"/>
      <path id="DejaVuSans-Oblique-3b1" d="M 2619 1628 
L 2622 2350 
Q 2625 3088 2069 3091 
Q 1653 3094 1394 2747 
Q 1069 2319 959 1747 
Q 825 1059 994 731 
Q 1169 397 1547 397 
Q 1966 397 2319 1063 
L 2619 1628 
z
M 2166 3578 
Q 3141 3594 3128 2584 
Q 3128 2584 3616 3500 
L 4128 3500 
L 3119 1603 
L 3109 919 
Q 3109 766 3194 638 
Q 3291 488 3391 488 
L 3669 488 
L 3575 0 
L 3228 0 
Q 2934 0 2722 263 
Q 2622 394 2619 669 
Q 2416 334 2066 50 
Q 1900 -81 1453 -78 
Q 722 -72 456 397 
Q 184 884 353 1747 
Q 534 2675 1009 3097 
Q 1544 3569 2166 3578 
z
" transform="scale(0.015625)"/>
      <path id="DejaVuSans-50" d="M 1259 4147 
L 1259 2394 
L 2053 2394 
Q 2494 2394 2734 2622 
Q 2975 2850 2975 3272 
Q 2975 3691 2734 3919 
Q 2494 4147 2053 4147 
L 1259 4147 
z
M 628 4666 
L 2053 4666 
Q 2838 4666 3239 4311 
Q 3641 3956 3641 3272 
Q 3641 2581 3239 2228 
Q 2838 1875 2053 1875 
L 1259 1875 
L 1259 0 
L 628 0 
L 628 4666 
z
" transform="scale(0.015625)"/>
      <path id="DejaVuSans-4d" d="M 628 4666 
L 1569 4666 
L 2759 1491 
L 3956 4666 
L 4897 4666 
L 4897 0 
L 4281 0 
L 4281 4097 
L 3078 897 
L 2444 897 
L 1241 4097 
L 1241 0 
L 628 0 
L 628 4666 
z
" transform="scale(0.015625)"/>
      <path id="DejaVuSans-2c" d="M 750 794 
L 1409 794 
L 1409 256 
L 897 -744 
L 494 -744 
L 750 256 
L 750 794 
z
" transform="scale(0.015625)"/>
      <path id="DejaVuSans-Oblique-72" d="M 2853 2969 
Q 2766 3016 2653 3041 
Q 2541 3066 2413 3066 
Q 1953 3066 1609 2717 
Q 1266 2369 1153 1784 
L 800 0 
L 225 0 
L 909 3500 
L 1484 3500 
L 1375 2956 
Q 1603 3259 1920 3421 
Q 2238 3584 2597 3584 
Q 2691 3584 2781 3573 
Q 2872 3563 2963 3538 
L 2853 2969 
z
" transform="scale(0.015625)"/>
      <path id="DejaVuSans-3d" d="M 678 2906 
L 4684 2906 
L 4684 2381 
L 678 2381 
L 678 2906 
z
M 678 1631 
L 4684 1631 
L 4684 1100 
L 678 1100 
L 678 1631 
z
" transform="scale(0.015625)"/>
      <path id="DejaVuSans-39" d="M 703 97 
L 703 672 
Q 941 559 1184 500 
Q 1428 441 1663 441 
Q 2288 441 2617 861 
Q 2947 1281 2994 2138 
Q 2813 1869 2534 1725 
Q 2256 1581 1919 1581 
Q 1219 1581 811 2004 
Q 403 2428 403 3163 
Q 403 3881 828 4315 
Q 1253 4750 1959 4750 
Q 2769 4750 3195 4129 
Q 3622 3509 3622 2328 
Q 3622 1225 3098 567 
Q 2575 -91 1691 -91 
Q 1453 -91 1209 -44 
Q 966 3 703 97 
z
M 1959 2075 
Q 2384 2075 2632 2365 
Q 2881 2656 2881 3163 
Q 2881 3666 2632 3958 
Q 2384 4250 1959 4250 
Q 1534 4250 1286 3958 
Q 1038 3666 1038 3163 
Q 1038 2656 1286 2365 
Q 1534 2075 1959 2075 
z
" transform="scale(0.015625)"/>
      <path id="DejaVuSans-37" d="M 525 4666 
L 3525 4666 
L 3525 4397 
L 1831 0 
L 1172 0 
L 2766 4134 
L 525 4134 
L 525 4666 
z
" transform="scale(0.015625)"/>
      <path id="DejaVuSans-35" d="M 691 4666 
L 3169 4666 
L 3169 4134 
L 1269 4134 
L 1269 2991 
Q 1406 3038 1543 3061 
Q 1681 3084 1819 3084 
Q 2600 3084 3056 2656 
Q 3513 2228 3513 1497 
Q 3513 744 3044 326 
Q 2575 -91 1722 -91 
Q 1428 -91 1123 -41 
Q 819 9 494 109 
L 494 744 
Q 775 591 1075 516 
Q 1375 441 1709 441 
Q 2250 441 2565 725 
Q 2881 1009 2881 1497 
Q 2881 1984 2565 2268 
Q 2250 2553 1709 2553 
Q 1456 2553 1204 2497 
Q 953 2441 691 2322 
L 691 4666 
z
" transform="scale(0.015625)"/>
     </defs>
     <use xlink:href="#DejaVuSans-41" transform="translate(0 0.765625)"/>
     <use xlink:href="#DejaVuSans-6e" transform="translate(68.408203 0.765625)"/>
     <use xlink:href="#DejaVuSans-61" transform="translate(131.787109 0.765625)"/>
     <use xlink:href="#DejaVuSans-6c" transform="translate(193.066406 0.765625)"/>
     <use xlink:href="#DejaVuSans-79" transform="translate(220.849609 0.765625)"/>
     <use xlink:href="#DejaVuSans-73" transform="translate(280.029297 0.765625)"/>
     <use xlink:href="#DejaVuSans-65" transform="translate(332.128906 0.765625)"/>
     <use xlink:href="#DejaVuSans-20" transform="translate(393.652344 0.765625)"/>
     <use xlink:href="#DejaVuSans-64" transform="translate(425.439453 0.765625)"/>
     <use xlink:href="#DejaVuSans-27" transform="translate(488.916016 0.765625)"/>
     <use xlink:href="#DejaVuSans-41" transform="translate(516.40625 0.765625)"/>
     <use xlink:href="#DejaVuSans-72" transform="translate(584.814453 0.765625)"/>
     <use xlink:href="#DejaVuSans-72" transform="translate(625.927734 0.765625)"/>
     <use xlink:href="#DejaVuSans-68" transform="translate(667.041016 0.765625)"/>
     <use xlink:href="#DejaVuSans-65" transform="translate(730.419922 0.765625)"/>
     <use xlink:href="#DejaVuSans-6e" transform="translate(791.943359 0.765625)"/>
     <use xlink:href="#DejaVuSans-69" transform="translate(855.322266 0.765625)"/>
     <use xlink:href="#DejaVuSans-75" transform="translate(883.105469 0.765625)"/>
     <use xlink:href="#DejaVuSans-73" transform="translate(946.484375 0.765625)"/>
     <use xlink:href="#DejaVuSans-20" transform="translate(998.583984 0.765625)"/>
     <use xlink:href="#DejaVuSans-2d" transform="translate(1030.371094 0.765625)"/>
     <use xlink:href="#DejaVuSans-20" transform="translate(1066.455078 0.765625)"/>
     <use xlink:href="#DejaVuSans-54" transform="translate(1098.242188 0.765625)"/>
     <use xlink:href="#DejaVuSans-72" transform="translate(1159.326172 0.765625)"/>
     <use xlink:href="#DejaVuSans-61" transform="translate(1200.439453 0.765625)"/>
     <use xlink:href="#DejaVuSans-6e" transform="translate(1261.71875 0.765625)"/>
     <use xlink:href="#DejaVuSans-73" transform="translate(1325.097656 0.765625)"/>
     <use xlink:href="#DejaVuSans-69" transform="translate(1377.197266 0.765625)"/>
     <use xlink:href="#DejaVuSans-74" transform="translate(1404.980469 0.765625)"/>
     <use xlink:href="#DejaVuSans-69" transform="translate(1444.189453 0.765625)"/>
     <use xlink:href="#DejaVuSans-6f" transform="translate(1471.972656 0.765625)"/>
     <use xlink:href="#DejaVuSans-6e" transform="translate(1533.154297 0.765625)"/>
     <use xlink:href="#DejaVuSans-20" transform="translate(1596.533203 0.765625)"/>
     <use xlink:href="#DejaVuSans-Oblique-3b1" transform="translate(1628.320312 0.765625)"/>
     <use xlink:href="#DejaVuSans-20" transform="translate(1694.238281 0.765625)"/>
     <use xlink:href="#DejaVuSans-50" transform="translate(1726.025391 0.765625)"/>
     <use xlink:href="#DejaVuSans-4d" transform="translate(1786.328125 0.765625)"/>
     <use xlink:href="#DejaVuSans-4d" transform="translate(1872.607422 0.765625)"/>
     <use xlink:href="#DejaVuSans-41" transform="translate(1958.886719 0.765625)"/>
     <use xlink:href="#DejaVuSans-38" transform="translate(2027.294922 0.765625)"/>
     <use xlink:href="#DejaVuSans-30" transform="translate(2090.917969 0.765625)"/>
     <use xlink:href="#DejaVuSans-2c" transform="translate(2154.541016 0.765625)"/>
     <use xlink:href="#DejaVuSans-20" transform="translate(2186.328125 0.765625)"/>
     <use xlink:href="#DejaVuSans-Oblique-72" transform="translate(2218.115234 0.765625)"/>
     <use xlink:href="#DejaVuSans-32" transform="translate(2263.878411 39.046875) scale(0.7)"/>
     <use xlink:href="#DejaVuSans-20" transform="translate(2311.148919 0.765625)"/>
     <use xlink:href="#DejaVuSans-3d" transform="translate(2342.936029 0.765625)"/>
     <use xlink:href="#DejaVuSans-20" transform="translate(2426.725091 0.765625)"/>
     <use xlink:href="#DejaVuSans-30" transform="translate(2458.512201 0.765625)"/>
     <use xlink:href="#DejaVuSans-2e" transform="translate(2522.135247 0.765625)"/>
     <use xlink:href="#DejaVuSans-39" transform="translate(2553.922357 0.765625)"/>
     <use xlink:href="#DejaVuSans-37" transform="translate(2617.545404 0.765625)"/>
     <use xlink:href="#DejaVuSans-35" transform="translate(2681.168451 0.765625)"/>
     <use xlink:href="#DejaVuSans-38" transform="translate(2744.791497 0.765625)"/>
    </g>
   </g>
   <g id="legend_1">
    <g id="patch_7">
     <path d="M 62.28 67.98825 
L 313.765937 67.98825 
Q 315.765937 67.98825 315.765937 65.98825 
L 315.765937 36.832 
Q 315.765937 34.832 313.765937 34.832 
L 62.28 34.832 
Q 60.28 34.832 60.28 36.832 
L 60.28 65.98825 
Q 60.28 67.98825 62.28 67.98825 
z
" style="fill: #ffffff; opacity: 0.8; stroke: #cccccc; stroke-linejoin: miter"/>
    </g>
    <g id="line2d_29">
     <path d="M 64.28 43.330438 
L 74.28 43.330438 
L 84.28 43.330438 
" style="fill: none; stroke-dasharray: 5.55,2.4; stroke-dashoffset: 0; stroke: #1f77b4; stroke-opacity: 0.7; stroke-width: 1.5"/>
     <g>
      <use xlink:href="#m50b306d33d" x="74.28" y="43.330438" style="fill: #1f77b4; fill-opacity: 0.7; stroke: #1f77b4; stroke-opacity: 0.7"/>
     </g>
    </g>
    <g id="text_17">
     <!-- Points expérimentaux -->
     <g transform="translate(92.28 46.830438) scale(0.1 -0.1)">
      <defs>
       <path id="DejaVuSans-78" d="M 3513 3500 
L 2247 1797 
L 3578 0 
L 2900 0 
L 1881 1375 
L 863 0 
L 184 0 
L 1544 1831 
L 300 3500 
L 978 3500 
L 1906 2253 
L 2834 3500 
L 3513 3500 
z
" transform="scale(0.015625)"/>
       <path id="DejaVuSans-70" d="M 1159 525 
L 1159 -1331 
L 581 -1331 
L 581 3500 
L 1159 3500 
L 1159 2969 
Q 1341 3281 1617 3432 
Q 1894 3584 2278 3584 
Q 2916 3584 3314 3078 
Q 3713 2572 3713 1747 
Q 3713 922 3314 415 
Q 2916 -91 2278 -91 
Q 1894 -91 1617 61 
Q 1341 213 1159 525 
z
M 3116 1747 
Q 3116 2381 2855 2742 
Q 2594 3103 2138 3103 
Q 1681 3103 1420 2742 
Q 1159 2381 1159 1747 
Q 1159 1113 1420 752 
Q 1681 391 2138 391 
Q 2594 391 2855 752 
Q 3116 1113 3116 1747 
z
" transform="scale(0.015625)"/>
       <path id="DejaVuSans-e9" d="M 3597 1894 
L 3597 1613 
L 953 1613 
Q 991 1019 1311 708 
Q 1631 397 2203 397 
Q 2534 397 2845 478 
Q 3156 559 3463 722 
L 3463 178 
Q 3153 47 2828 -22 
Q 2503 -91 2169 -91 
Q 1331 -91 842 396 
Q 353 884 353 1716 
Q 353 2575 817 3079 
Q 1281 3584 2069 3584 
Q 2775 3584 3186 3129 
Q 3597 2675 3597 1894 
z
M 3022 2063 
Q 3016 2534 2758 2815 
Q 2500 3097 2075 3097 
Q 1594 3097 1305 2825 
Q 1016 2553 972 2059 
L 3022 2063 
z
M 2466 5119 
L 3088 5119 
L 2070 3944 
L 1591 3944 
L 2466 5119 
z
" transform="scale(0.015625)"/>
       <path id="DejaVuSans-6d" d="M 3328 2828 
Q 3544 3216 3844 3400 
Q 4144 3584 4550 3584 
Q 5097 3584 5394 3201 
Q 5691 2819 5691 2113 
L 5691 0 
L 5113 0 
L 5113 2094 
Q 5113 2597 4934 2840 
Q 4756 3084 4391 3084 
Q 3944 3084 3684 2787 
Q 3425 2491 3425 1978 
L 3425 0 
L 2847 0 
L 2847 2094 
Q 2847 2600 2669 2842 
Q 2491 3084 2119 3084 
Q 1678 3084 1418 2786 
Q 1159 2488 1159 1978 
L 1159 0 
L 581 0 
L 581 3500 
L 1159 3500 
L 1159 2956 
Q 1356 3278 1631 3431 
Q 1906 3584 2284 3584 
Q 2666 3584 2933 3390 
Q 3200 3197 3328 2828 
z
" transform="scale(0.015625)"/>
      </defs>
      <use xlink:href="#DejaVuSans-50"/>
      <use xlink:href="#DejaVuSans-6f" transform="translate(56.677734 0)"/>
      <use xlink:href="#DejaVuSans-69" transform="translate(117.859375 0)"/>
      <use xlink:href="#DejaVuSans-6e" transform="translate(145.642578 0)"/>
      <use xlink:href="#DejaVuSans-74" transform="translate(209.021484 0)"/>
      <use xlink:href="#DejaVuSans-73" transform="translate(248.230469 0)"/>
      <use xlink:href="#DejaVuSans-20" transform="translate(300.330078 0)"/>
      <use xlink:href="#DejaVuSans-65" transform="translate(332.117188 0)"/>
      <use xlink:href="#DejaVuSans-78" transform="translate(391.890625 0)"/>
      <use xlink:href="#DejaVuSans-70" transform="translate(451.070312 0)"/>
      <use xlink:href="#DejaVuSans-e9" transform="translate(514.546875 0)"/>
      <use xlink:href="#DejaVuSans-72" transform="translate(576.070312 0)"/>
      <use xlink:href="#DejaVuSans-69" transform="translate(617.183594 0)"/>
      <use xlink:href="#DejaVuSans-6d" transform="translate(644.966797 0)"/>
      <use xlink:href="#DejaVuSans-65" transform="translate(742.378906 0)"/>
      <use xlink:href="#DejaVuSans-6e" transform="translate(803.902344 0)"/>
      <use xlink:href="#DejaVuSans-74" transform="translate(867.28125 0)"/>
      <use xlink:href="#DejaVuSans-61" transform="translate(906.490234 0)"/>
      <use xlink:href="#DejaVuSans-75" transform="translate(967.769531 0)"/>
      <use xlink:href="#DejaVuSans-78" transform="translate(1031.148438 0)"/>
     </g>
    </g>
    <g id="line2d_30">
     <path d="M 64.28 58.408563 
L 74.28 58.408563 
L 84.28 58.408563 
" style="fill: none; stroke: #ff7f0e; stroke-width: 1.5; stroke-linecap: square"/>
    </g>
    <g id="text_18">
     <!-- Régression linéaire : y = 31383.30x + -0.26 -->
     <g transform="translate(92.28 61.908563) scale(0.1 -0.1)">
      <defs>
       <path id="DejaVuSans-52" d="M 2841 2188 
Q 3044 2119 3236 1894 
Q 3428 1669 3622 1275 
L 4263 0 
L 3584 0 
L 2988 1197 
Q 2756 1666 2539 1819 
Q 2322 1972 1947 1972 
L 1259 1972 
L 1259 0 
L 628 0 
L 628 4666 
L 2053 4666 
Q 2853 4666 3247 4331 
Q 3641 3997 3641 3322 
Q 3641 2881 3436 2590 
Q 3231 2300 2841 2188 
z
M 1259 4147 
L 1259 2491 
L 2053 2491 
Q 2509 2491 2742 2702 
Q 2975 2913 2975 3322 
Q 2975 3731 2742 3939 
Q 2509 4147 2053 4147 
L 1259 4147 
z
" transform="scale(0.015625)"/>
       <path id="DejaVuSans-67" d="M 2906 1791 
Q 2906 2416 2648 2759 
Q 2391 3103 1925 3103 
Q 1463 3103 1205 2759 
Q 947 2416 947 1791 
Q 947 1169 1205 825 
Q 1463 481 1925 481 
Q 2391 481 2648 825 
Q 2906 1169 2906 1791 
z
M 3481 434 
Q 3481 -459 3084 -895 
Q 2688 -1331 1869 -1331 
Q 1566 -1331 1297 -1286 
Q 1028 -1241 775 -1147 
L 775 -588 
Q 1028 -725 1275 -790 
Q 1522 -856 1778 -856 
Q 2344 -856 2625 -561 
Q 2906 -266 2906 331 
L 2906 616 
Q 2728 306 2450 153 
Q 2172 0 1784 0 
Q 1141 0 747 490 
Q 353 981 353 1791 
Q 353 2603 747 3093 
Q 1141 3584 1784 3584 
Q 2172 3584 2450 3431 
Q 2728 3278 2906 2969 
L 2906 3500 
L 3481 3500 
L 3481 434 
z
" transform="scale(0.015625)"/>
       <path id="DejaVuSans-3a" d="M 750 794 
L 1409 794 
L 1409 0 
L 750 0 
L 750 794 
z
M 750 3309 
L 1409 3309 
L 1409 2516 
L 750 2516 
L 750 3309 
z
" transform="scale(0.015625)"/>
       <path id="DejaVuSans-2b" d="M 2944 4013 
L 2944 2272 
L 4684 2272 
L 4684 1741 
L 2944 1741 
L 2944 0 
L 2419 0 
L 2419 1741 
L 678 1741 
L 678 2272 
L 2419 2272 
L 2419 4013 
L 2944 4013 
z
" transform="scale(0.015625)"/>
      </defs>
      <use xlink:href="#DejaVuSans-52"/>
      <use xlink:href="#DejaVuSans-e9" transform="translate(64.982422 0)"/>
      <use xlink:href="#DejaVuSans-67" transform="translate(126.505859 0)"/>
      <use xlink:href="#DejaVuSans-72" transform="translate(189.982422 0)"/>
      <use xlink:href="#DejaVuSans-65" transform="translate(228.845703 0)"/>
      <use xlink:href="#DejaVuSans-73" transform="translate(290.369141 0)"/>
      <use xlink:href="#DejaVuSans-73" transform="translate(342.46875 0)"/>
      <use xlink:href="#DejaVuSans-69" transform="translate(394.568359 0)"/>
      <use xlink:href="#DejaVuSans-6f" transform="translate(422.351562 0)"/>
      <use xlink:href="#DejaVuSans-6e" transform="translate(483.533203 0)"/>
      <use xlink:href="#DejaVuSans-20" transform="translate(546.912109 0)"/>
      <use xlink:href="#DejaVuSans-6c" transform="translate(578.699219 0)"/>
      <use xlink:href="#DejaVuSans-69" transform="translate(606.482422 0)"/>
      <use xlink:href="#DejaVuSans-6e" transform="translate(634.265625 0)"/>
      <use xlink:href="#DejaVuSans-e9" transform="translate(697.644531 0)"/>
      <use xlink:href="#DejaVuSans-61" transform="translate(759.167969 0)"/>
      <use xlink:href="#DejaVuSans-69" transform="translate(820.447266 0)"/>
      <use xlink:href="#DejaVuSans-72" transform="translate(848.230469 0)"/>
      <use xlink:href="#DejaVuSans-65" transform="translate(887.09375 0)"/>
      <use xlink:href="#DejaVuSans-20" transform="translate(948.617188 0)"/>
      <use xlink:href="#DejaVuSans-3a" transform="translate(980.404297 0)"/>
      <use xlink:href="#DejaVuSans-20" transform="translate(1014.095703 0)"/>
      <use xlink:href="#DejaVuSans-79" transform="translate(1045.882812 0)"/>
      <use xlink:href="#DejaVuSans-20" transform="translate(1105.0625 0)"/>
      <use xlink:href="#DejaVuSans-3d" transform="translate(1136.849609 0)"/>
      <use xlink:href="#DejaVuSans-20" transform="translate(1220.638672 0)"/>
      <use xlink:href="#DejaVuSans-33" transform="translate(1252.425781 0)"/>
      <use xlink:href="#DejaVuSans-31" transform="translate(1316.048828 0)"/>
      <use xlink:href="#DejaVuSans-33" transform="translate(1379.671875 0)"/>
      <use xlink:href="#DejaVuSans-38" transform="translate(1443.294922 0)"/>
      <use xlink:href="#DejaVuSans-33" transform="translate(1506.917969 0)"/>
      <use xlink:href="#DejaVuSans-2e" transform="translate(1570.541016 0)"/>
      <use xlink:href="#DejaVuSans-33" transform="translate(1602.328125 0)"/>
      <use xlink:href="#DejaVuSans-30" transform="translate(1665.951172 0)"/>
      <use xlink:href="#DejaVuSans-78" transform="translate(1729.574219 0)"/>
      <use xlink:href="#DejaVuSans-20" transform="translate(1788.753906 0)"/>
      <use xlink:href="#DejaVuSans-2b" transform="translate(1820.541016 0)"/>
      <use xlink:href="#DejaVuSans-20" transform="translate(1904.330078 0)"/>
      <use xlink:href="#DejaVuSans-2d" transform="translate(1936.117188 0)"/>
      <use xlink:href="#DejaVuSans-30" transform="translate(1972.201172 0)"/>
      <use xlink:href="#DejaVuSans-2e" transform="translate(2035.824219 0)"/>
      <use xlink:href="#DejaVuSans-32" transform="translate(2067.611328 0)"/>
      <use xlink:href="#DejaVuSans-36" transform="translate(2131.234375 0)"/>
     </g>
    </g>
   </g>
  </g>
 </g>
 <defs>
  <clipPath id="pac330f721f">
   <rect x="55.28" y="29.832" width="509.735909" height="279.568"/>
  </clipPath>
 </defs>
</svg>
